<?xml version="1.0" standalone="no"?>
<!DOCTYPE svg PUBLIC "-//W3C//DTD SVG 20010904//EN"
 "http://www.w3.org/TR/2001/REC-SVG-20010904/DTD/svg10.dtd">
<svg version="1.0" xmlns="http://www.w3.org/2000/svg"
 width="300.000000pt" height="300.000000pt" viewBox="0 0 300.000000 300.000000"
 preserveAspectRatio="xMidYMid meet">
<metadata>
Created by potrace 1.10, written by Peter Selinger 2001-2011
</metadata>
<g transform="translate(0.000000,300.000000) scale(0.100000,-0.100000)"
fill="#000000" stroke="none">
<path d="M1390 2310 c-139 -35 -266 -141 -327 -272 -48 -101 -55 -259 -16
-362 16 -44 24 -51 88 -83 104 -53 209 -127 293 -207 l74 -71 74 72 c78 76
198 161 300 211 79 40 95 75 102 216 l4 100 -48 -43 c-112 -99 -337 -224 -524
-293 -167 -62 -207 -61 -55 1 184 75 416 218 542 335 l67 62 -14 35 c-50 125
-158 234 -278 280 -64 24 -221 35 -282 19z m170 -29 c14 -1 32 -6 40 -11 13
-9 12 -13 -7 -28 -31 -25 -93 -102 -93 -115 1 -7 8 0 16 16 8 15 18 27 23 27
4 0 14 11 21 25 7 14 24 32 36 40 19 12 27 13 56 1 18 -7 39 -11 46 -9 6 3 12
-1 12 -7 0 -7 -9 -14 -21 -17 -16 -4 -17 -8 -7 -14 19 -13 28 -11 28 6 0 8 5
15 11 15 5 0 7 5 4 10 -3 6 0 10 6 10 38 0 189 -195 189 -243 0 -28 -152 -157
-186 -157 -27 0 -46 22 -38 44 4 10 1 16 -9 16 -11 0 -15 -8 -14 -27 1 -16 7
-27 12 -26 6 1 15 -3 22 -9 9 -7 3 -18 -24 -44 -34 -32 -55 -37 -49 -11 1 7 1
9 -1 5 -3 -5 -14 -8 -26 -9 -21 0 -20 -1 3 -10 24 -10 22 -12 -40 -46 -140
-76 -279 -143 -297 -143 -10 0 -29 3 -41 7 -20 5 -23 11 -19 36 3 26 2 28 -9
13 -11 -16 -15 -16 -57 3 -67 31 -82 68 -82 212 0 113 1 116 38 191 26 54 54
92 96 131 52 48 126 93 163 101 7 2 20 6 28 9 23 9 61 13 105 11 22 -1 51 -3
65 -3z m384 -504 c-6 -53 -22 -96 -47 -124 -16 -18 -24 -20 -44 -12 -22 8 -25
7 -21 -9 4 -14 -7 -25 -46 -45 -66 -35 -176 -118 -237 -179 -50 -50 -65 -59
-55 -33 3 8 1 15 -5 15 -6 0 -8 7 -5 16 3 8 2 12 -3 9 -5 -3 -22 6 -37 20 -15
14 -32 25 -39 25 -7 0 -27 15 -44 32 l-32 32 38 13 c21 7 45 16 53 20 8 3 17
7 20 8 64 16 289 123 323 152 15 15 19 14 38 -3 22 -19 22 -19 9 6 -10 18 -10
25 -1 28 7 2 37 21 69 42 31 21 60 36 63 34 4 -2 5 -23 3 -47z"/>
<path d="M1604 2165 c-9 -18 -9 -25 0 -28 17 -7 -17 -62 -37 -61 -9 1 -14 -2
-12 -7 7 -10 65 -7 65 3 0 4 13 21 29 37 l29 29 -27 -1 c-21 -2 -26 3 -26 20
-1 32 -9 35 -21 8z"/>
<path d="M1415 2100 c-3 -5 -4 -14 0 -19 3 -5 -2 -16 -10 -25 -14 -14 -14 -17
5 -36 25 -25 42 -25 65 0 10 11 26 22 36 25 12 4 19 16 19 31 0 21 4 24 20 19
11 -4 20 -2 20 4 0 6 -13 11 -30 11 -22 0 -28 -4 -24 -15 6 -16 -12 -45 -27
-45 -5 0 -9 7 -9 15 0 8 -4 15 -9 15 -5 0 -7 -9 -4 -20 4 -15 -2 -22 -22 -30
-15 -6 -30 -9 -32 -7 -6 7 9 37 18 37 6 0 6 8 0 19 -6 10 -7 21 -4 25 3 3 4 6
0 6 -3 0 -9 -4 -12 -10z"/>
<path d="M1414 1972 c6 -18 2 -21 -26 -25 l-33 -4 38 -1 c31 -2 37 1 37 17 0
11 -5 23 -11 27 -7 4 -9 0 -5 -14z"/>
<path d="M1715 1950 c-8 -24 2 -41 13 -23 5 7 13 9 21 4 9 -6 6 -10 -13 -15
-14 -3 -26 -11 -26 -16 0 -13 17 -13 25 0 3 6 26 10 51 10 40 0 44 2 30 15 -8
8 -25 15 -37 15 -12 0 -30 7 -40 16 -16 14 -18 14 -24 -6z"/>
<path d="M1560 1945 c0 -16 27 -45 41 -45 5 0 9 -8 9 -17 0 -10 13 -27 28 -37
27 -20 27 -20 10 0 -10 12 -18 27 -18 34 0 8 -16 28 -35 46 -19 17 -35 26 -35
19z"/>
<path d="M1510 1919 c0 -6 -7 -8 -16 -5 -10 4 -29 -8 -54 -34 -43 -45 -73 -51
-101 -18 -11 11 -19 16 -19 11 0 -6 7 -16 16 -24 14 -11 13 -15 -8 -32 l-23
-19 26 15 c15 9 65 19 114 23 74 6 90 5 100 -9 7 -11 16 -13 26 -6 11 7 11 9
-3 9 -10 0 -18 5 -18 10 0 6 9 10 21 10 15 0 19 4 15 16 -3 9 -6 18 -6 20 0 2
-4 4 -10 4 -5 0 -7 -7 -3 -16 4 -12 2 -15 -8 -12 -8 3 -13 13 -11 22 3 18 -14
46 -29 46 -5 0 -9 -5 -9 -11z m32 -56 c8 -10 -2 -13 -46 -13 l-56 0 16 26 c13
19 23 24 41 19 15 -3 23 -1 24 7 1 7 4 4 6 -7 3 -11 10 -26 15 -32z"/>
<path d="M1930 2177 c36 -7 75 -18 88 -25 31 -18 28 -58 -8 -116 -25 -39 -27
-47 -13 -44 23 4 63 82 63 123 l1 30 13 -24 c17 -31 8 -54 -53 -134 -24 -32
-41 -60 -38 -63 9 -9 87 76 108 119 27 51 22 94 -14 121 -23 17 -45 21 -120
23 l-92 2 65 -12z"/>
<path d="M880 1525 l0 -114 38 -6 c195 -31 386 -103 524 -196 l58 -39 71 46
c131 85 303 152 457 179 47 8 86 15 88 15 2 0 4 52 4 115 0 65 -4 115 -9 115
-21 0 -160 -55 -231 -90 -41 -21 -108 -61 -148 -90 -95 -67 -219 -192 -231
-233 l-9 -32 -1 32 c-2 65 -192 233 -360 317 -80 41 -220 96 -242 96 -5 0 -9
-50 -9 -115z m124 45 c76 -26 144 -63 241 -130 87 -60 201 -165 188 -173 -4
-3 -51 16 -104 42 -107 53 -194 82 -319 109 -64 14 -85 23 -90 38 -6 16 -7 88
-1 127 2 12 24 8 85 -13z m1079 -7 c5 -26 1 -93 -8 -119 -2 -7 -21 -14 -42
-18 -130 -20 -253 -60 -386 -128 -32 -16 -63 -28 -68 -26 -18 6 114 127 195
180 88 59 250 137 282 138 16 0 23 -8 27 -27z"/>
<path d="M890 1019 c0 -5 7 -9 15 -9 24 0 22 -165 -2 -179 -14 -8 1 -10 58
-11 63 0 82 4 110 23 63 42 61 130 -4 164 -33 17 -177 26 -177 12z m136 -17
c32 -21 44 -94 23 -133 -13 -25 -50 -40 -66 -27 -9 7 -13 38 -13 89 0 75 1 79
23 79 12 0 27 -4 33 -8z"/>
<path d="M1140 1020 c0 -4 7 -10 15 -14 12 -4 15 -23 15 -84 0 -72 -2 -80 -22
-90 -19 -9 -12 -11 42 -11 57 0 63 1 47 13 -13 10 -17 24 -15 48 l3 33 34 -47
35 -48 180 0 c157 1 179 2 163 15 -13 9 -17 20 -12 34 5 16 15 21 45 21 31 0
39 -4 44 -22 4 -15 0 -27 -11 -35 -14 -11 2 -13 88 -13 101 0 103 1 81 18 -21
16 -23 25 -20 92 l3 75 31 -89 c16 -50 35 -91 40 -93 5 -2 22 32 38 74 16 43
33 82 38 87 4 6 8 -24 8 -65 0 -69 -2 -77 -22 -87 -19 -9 -12 -11 42 -11 56 0
63 1 48 13 -25 18 -27 176 -3 176 8 0 15 4 15 10 0 5 -21 8 -47 6 l-47 -4 -25
-67 -24 -66 -26 66 -26 67 -47 3 c-27 1 -48 -1 -48 -6 0 -5 6 -9 14 -9 20 0
21 -9 18 -94 -3 -57 -7 -76 -20 -81 -23 -9 -38 12 -76 105 -19 47 -41 86 -48
88 -10 2 -26 -23 -47 -75 -18 -43 -39 -88 -47 -100 -21 -33 -37 -29 -29 7 8
36 -7 40 -23 6 -10 -23 -41 -35 -74 -28 -14 3 -18 13 -18 43 0 32 3 39 19 39
11 0 27 -10 35 -22 15 -22 16 -21 15 27 0 48 -1 49 -16 28 -8 -13 -24 -23 -34
-23 -15 0 -19 8 -19 40 0 38 2 40 30 40 17 0 38 -9 50 -22 l20 -22 0 32 0 32
-90 -2 c-49 -2 -90 -6 -90 -10 0 -5 7 -8 15 -8 13 0 15 -14 13 -87 -4 -108
-18 -117 -78 -51 l-40 43 25 18 c28 21 33 58 10 77 -15 13 -175 22 -175 10z
m125 -49 c0 -26 -5 -36 -22 -42 -22 -8 -23 -6 -23 37 0 41 2 45 23 42 18 -2
22 -9 22 -37z m423 -43 c11 -27 11 -28 -19 -28 -26 0 -30 3 -24 18 4 9 10 25
12 35 6 21 14 14 31 -25z"/>
<path d="M876 659 c-49 -38 -26 -90 48 -110 41 -11 55 -32 36 -54 -21 -25 -56
-18 -84 17 -29 37 -39 34 -30 -10 4 -19 12 -31 23 -31 9 0 28 -3 44 -7 37 -9
86 13 98 44 13 35 -10 66 -66 88 -37 14 -45 21 -43 38 2 15 12 22 31 24 22 3
31 -3 45 -27 22 -40 32 -39 32 3 0 31 -3 34 -37 40 -58 9 -68 8 -97 -15z"/>
<path d="M1122 663 c-5 -10 -24 -53 -42 -96 -17 -42 -39 -81 -48 -87 -13 -7
-4 -9 33 -9 40 0 45 2 28 9 -18 8 -21 14 -14 32 10 27 68 38 82 16 14 -22 10
-46 -8 -51 -10 -3 32 -5 92 -5 86 -1 105 2 88 10 -20 10 -23 19 -23 75 l0 64
60 -75 c81 -102 90 -100 90 14 0 85 1 91 23 99 18 7 13 9 -26 12 -51 4 -72 -5
-37 -16 17 -5 20 -15 20 -63 0 -64 6 -67 -70 32 -32 42 -39 45 -80 46 -43 0
-44 0 -22 -16 19 -13 22 -24 22 -83 0 -50 -4 -72 -16 -82 -26 -21 -46 1 -84
96 -37 92 -52 109 -68 78z m28 -109 c0 -2 -11 -4 -25 -4 -28 0 -30 6 -14 47
l11 28 14 -34 c8 -18 14 -35 14 -37z"/>
<path d="M1538 660 c-17 -12 -28 -31 -28 -45 0 -28 38 -61 81 -70 35 -8 47
-29 29 -50 -21 -25 -57 -18 -82 15 -28 39 -38 38 -36 -5 1 -28 5 -34 22 -34
12 0 33 -3 49 -7 37 -9 86 13 93 41 10 41 0 60 -46 81 -63 30 -74 42 -59 60
19 23 62 13 77 -18 18 -39 35 -36 27 5 -4 17 -8 33 -9 34 -2 2 -22 6 -47 9
-36 5 -49 2 -71 -16z"/>
<path d="M1777 653 c-8 -15 -27 -57 -41 -92 -14 -35 -34 -70 -43 -77 -16 -12
-13 -13 26 -14 40 0 43 2 27 13 -15 11 -17 17 -7 35 14 27 75 31 85 6 10 -27
7 -42 -11 -47 -10 -3 36 -5 101 -6 100 -1 117 1 102 12 -12 9 -17 23 -14 47
l3 35 34 -47 c31 -43 39 -48 73 -48 l38 0 -46 47 -45 48 26 18 c27 20 34 60
13 74 -16 10 -178 21 -178 12 0 -4 7 -9 15 -13 23 -8 22 -164 -1 -173 -29 -11
-48 12 -84 102 -20 49 -41 90 -47 92 -7 3 -18 -8 -26 -24z m257 1 c19 -7 21
-55 4 -72 -25 -25 -38 -13 -38 33 0 45 5 50 34 39z m-224 -100 c0 -2 -11 -4
-25 -4 -28 0 -30 6 -14 47 l11 28 14 -34 c8 -18 14 -35 14 -37z"/>
</g>
</svg>
